<svg id="color" height="512" viewBox="0 0 24 24" width="512" xmlns="http://www.w3.org/2000/svg"><path d="m8 22c-.216 0-.421-.093-.563-.255-.304-.346-7.437-8.522-7.437-13.745 0-4.411 3.589-8 8-8s8 3.589 8 8c0 5.223-7.133 13.399-7.437 13.745-.142.162-.347.255-.563.255z" fill="#eceff1"/><path d="m8 12c-2.206 0-4-1.794-4-4s1.794-4 4-4 4 1.794 4 4-1.794 4-4 4z" fill="#607d8b"/><path d="m8 0c-4.411 0-8 3.589-8 8 0 5.223 7.133 13.399 7.437 13.745.142.162.347.255.563.255v-10c-2.206 0-4-1.794-4-4s1.794-4 4-4z" fill="#cdd0d2"/><path d="m8 4c-2.206 0-4 1.794-4 4s1.794 4 4 4z" fill="#546d79"/><g fill="#2196f3"><path d="m17 24c-1.058 0-2.115-.254-3.165-.762h-.001c-.507-.245-.834-.771-.834-1.338 0-2.15 1.794-3.9 4-3.9s4 1.75 4 3.9c0 .567-.327 1.093-.834 1.338-1.051.509-2.108.762-3.166.762z"/><path d="m13.453 15.034c-.252-1.213.026-2.626 1.045-2.979.775-.27 1.909.247 2.282 2.031v.001c.252 1.213-.026 2.626-1.045 2.978-1.088.375-2.006-.71-2.282-2.031z"/><path d="m18.345 17.066c-1.019-.352-1.297-1.765-1.045-2.978.37-1.777 1.498-2.302 2.281-2.032 1.019.353 1.297 1.765 1.045 2.979-.375 1.802-1.513 2.296-2.281 2.031z"/><path d="m10.378 17.812c-.572-.939-.521-2.188.393-2.689.819-.449 1.941-.011 2.555.997.573.942.52 2.19-.393 2.689-.878.482-1.996-.078-2.555-.997z"/><path d="m21.066 18.808c-.758-.416-1.086-1.549-.392-2.688.612-1.008 1.734-1.446 2.555-.997.913.5.965 1.75.393 2.689-.556.914-1.668 1.482-2.556.996z"/></g><path d="m17 18c-2.206 0-4 1.75-4 3.9 0 .567.327 1.093.834 1.338h.001c1.05.509 2.107.762 3.165.762z" fill="#1d83d4"/><path d="m14.902 11.988c-.141 0-.277.023-.404.067-1.019.353-1.297 1.765-1.045 2.979.238 1.141.956 2.107 1.849 2.107.14 0 .285-.024.433-.075 1.019-.353 1.297-1.765 1.045-2.978v-.001c-.312-1.493-1.156-2.099-1.878-2.099z" fill="#1d83d4"/><path d="m11.473 14.947c-.245 0-.484.057-.702.176-.913.5-.965 1.75-.393 2.689.418.688 1.148 1.174 1.857 1.174.239 0 .476-.055.697-.177.912-.499.966-1.747.393-2.689-.45-.741-1.175-1.173-1.852-1.173z" fill="#1d83d4"/></svg>