<svg height="512" viewBox="0 0 46 60" width="512" xmlns="http://www.w3.org/2000/svg"><g id="Page-1" fill="none" fill-rule="evenodd"><g id="024---GPS-Location" fill-rule="nonzero" transform="translate(0 -1)"><path id="Shape" d="m44.785 27.475c-1.672 13.586-16.466 28.837-20.544 32.09-.7257197.579891-1.7562803.579891-2.482 0-4.647-3.707-20.759-20.173-20.759-35.565-.00067103-5.8927437 2.36269805-11.5394375 6.56058429-15.67491561 4.19788621-4.13547813 9.87934301-6.41401129 15.77141571-6.32508439 13.26.2 23.073 12.312 21.453 25.475z" fill="#e8edfc"/><path id="Shape" d="m23.332 2c-.6-.008-1.2.014-1.787.053 12.64.889 21.81 12.662 20.24 25.42-1.639 13.327-15.885 28.234-20.285 31.879.087.071.179.149.259.213.7257197.579891 1.7562803.579891 2.482 0 4.078-3.253 18.872-18.5 20.544-32.09 1.62-13.163-8.193-25.275-21.453-25.475z" fill="#cad9fc"/><circle id="Oval" cx="23" cy="24" fill="#a4c2f7" r="17"/><path id="Shape" d="m28 46h-10c-.3926513-.0003367-.7491638.2291477-.9114493.586693s-.1003082.7769771.1584493 1.072307l5 6c.1898961.217306.464413.3419795.753.3419795s.5631039-.1246735.753-.3419795l5-6c.2587575-.2953299.3207348-.7147617.1584493-1.072307s-.518798-.5870297-.9114493-.586693z" fill="#a4c2f7"/><path id="Shape" d="m23 17.85c-1.2759431-1.770411-3.317817-2.8284729-5.5-2.85-3.256 0-5.5 2.85-5.5 6.189 0 4.075 3.427 8.122 10.656 12.712.2103283.1320377.4776717.1320377.688 0 7.229-4.59 10.656-8.637 10.656-12.712 0-3.339-2.244-6.189-5.5-6.189-2.182183.0215271-4.2240569 1.079589-5.5 2.85z" fill="#fff"/><path id="Shape" d="m1 24c0 15.392 16.112 31.858 20.759 35.565.7257197.579891 1.7562803.579891 2.482 0 .08-.064.171-.14.259-.213-4.949-4.073-20.5-20.226-20.5-35.352.00359759-11.582823 8.9875359-21.17895473 20.545-21.945-.4-.02866667-.8043333-.04633333-1.213-.053-5.8917259-.08892163-11.5728761 2.18933872-15.77070322 6.32438266-4.19782713 4.13504394-6.5614321 9.78122044-6.56129678 15.67361734z" fill="#fff"/><path id="Shape" d="m3.244 31.577-1.914.58-.56-1.983c-.152-.671-.253-1.357-.381-2.035l-.182-1.02c-.045-.343-.051-.693-.078-1.038l-.129-2.081h2l.122 1.912c.025.318.028.638.07.955l.171.949c.12.631.211 1.267.353 1.895z" fill="#fff"/><g fill="#428dff"><path id="Shape" d="m4.757 40.205c1.37802023 2.553004 2.93420668 5.0057437 4.657 7.34 1.6995776 2.3392854 3.5277243 4.5824041 5.476 6.719 1.9356138 2.1724298 4.0228489 4.2048608 6.246 6.082 1.088723.8747586 2.639277.8747586 3.728 0 3.079-2.456 19.1-18.028 20.913-32.75.840184-6.7858735-1.2396343-13.6094367-5.722-18.773-4.1848392-4.88951035-10.2726838-7.73995376-16.708-7.823-6.1598785-.09294444-12.0995598 2.2891693-16.48823922 6.61262101-4.38867945 4.32345169-6.85946194 10.22679939-6.85876078 16.38737899 0 .5522847.44771525 1 1 1s1-.4477153 1-1c-.0006409-5.6249077 2.25531476-11.0149477 6.26240781-14.96245224 4.00709309-3.94750454 9.43032539-6.12245712 15.05459219-6.03754776 5.8664754.07762483 11.4155328 2.67726531 15.23 7.135 4.1101622 4.7354686 6.0166473 10.9932468 5.245 17.216-1.578 12.821-15.541 27.734-20.175 31.43-.3606302.2888313-.8733698.2888313-1.234 0-2.1383573-1.8116496-4.1472677-3.7707717-6.012-5.863-1.8997721-2.0838566-3.6828288-4.2711974-5.341-6.552-1.66919842-2.2617333-3.17693308-4.6382867-4.512-7.112-1.3533274-2.439863-2.45050566-5.0132386-3.274-7.679-.16310994-.5247314-.71905344-.8195483-1.24493633-.6601899-.52588288.1593585-.8246625.7131824-.66906367 1.2401899.86192301 2.7942419 2.01035871 5.4919096 3.427 8.05z"/><path id="Shape" d="m1.4 28.983c-.55228474.0030376-1.00246242-.4422153-1.00549998-.9945-.00303757-.5522847.44221524-1.0024624.99449998-1.0055h.011c.55228475 0 1 .4477153 1 1s-.44771525 1-1 1z"/><path id="Shape" d="m41 24c0-9.9411255-8.0588745-18-18-18s-18 8.0588745-18 18 8.0588745 18 18 18c9.9363282-.0115721 17.9884279-8.0636718 18-18zm-18 16c-8.836556 0-16-7.163444-16-16s7.163444-16 16-16 16 7.163444 16 16c-.0104696 8.8322157-7.1677843 15.9895304-16 16z"/><path id="Shape" d="m28 45h-10c-.780887-.0004419-1.4906162.4536423-1.8174853 1.1628258-.3268692.7091836-.2110915 1.5437515.2964853 2.1371742l5.021 6.017c.3825117.4372007.936214.6864868 1.5171165.6830313.5809025-.0034554 1.1316-.259311 1.5088835-.7010313l4.984-5.982c.5173398-.5912481.6406086-1.4306186.3151065-2.1456453-.325502-.7150267-1.0394786-1.1732574-1.8251065-1.1713547zm-4.984 8.019-5.016-6.019h10z"/><path id="Shape" d="m28.5 14c-2.0686558.0026286-4.0498529.8347314-5.5 2.31-1.4501471-1.4752686-3.4313442-2.3073714-5.5-2.31-3.645 0-6.5 3.158-6.5 7.189 0 4.432 3.534 8.74 11.121 13.557.5374524.3385885 1.2215476.3385885 1.759 0 7.586-4.817 11.12-9.125 11.12-13.557 0-4.031-2.855-7.189-6.5-7.189zm-5.5 18.935c-6.821-4.363-10-8.1-10-11.746 0-2.958 1.935-5.189 4.5-5.189 1.8473976.0146898 3.5781782.9053145 4.664 2.4.1843752.2799739.496771.448938.832.45h.004c.3362932-.0000554.6500388-.1691398.835-.45 1.085816-1.4952176 2.8171703-2.3859465 4.665-2.4 2.565 0 4.5 2.231 4.5 5.189 0 3.648-3.179 7.384-10 11.746z"/></g></g></g></svg>